solid OpenSCAD_Model
  facet normal 1 -0 0
    outer loop
      vertex 10 0 6
      vertex 10 6 3
      vertex 10 6 6
    endloop
  endfacet
  facet normal 1 0 0
    outer loop
      vertex 10 6 3
      vertex 10 0 6
      vertex 10 0 3
    endloop
  endfacet
  facet normal -0 0 1
    outer loop
      vertex 0 6 6
      vertex 10 0 6
      vertex 10 6 6
    endloop
  endfacet
  facet normal 0 0 1
    outer loop
      vertex 10 0 6
      vertex 0 6 6
      vertex 0 0 6
    endloop
  endfacet
  facet normal 0 0 -1
    outer loop
      vertex 0 0 3
      vertex 10 6 3
      vertex 10 0 3
    endloop
  endfacet
  facet normal -0 0 -1
    outer loop
      vertex 10 6 3
      vertex 0 0 3
      vertex 0 6 3
    endloop
  endfacet
  facet normal -1 0 0
    outer loop
      vertex 0 0 3
      vertex 0 6 6
      vertex 0 6 3
    endloop
  endfacet
  facet normal -1 -0 0
    outer loop
      vertex 0 6 6
      vertex 0 0 3
      vertex 0 0 6
    endloop
  endfacet
  facet normal 0 1 -0
    outer loop
      vertex 10 6 3
      vertex 0 6 6
      vertex 10 6 6
    endloop
  endfacet
  facet normal 0 1 0
    outer loop
      vertex 0 6 6
      vertex 10 6 3
      vertex 0 6 3
    endloop
  endfacet
  facet normal 0 -1 0
    outer loop
      vertex 0 0 3
      vertex 10 0 6
      vertex 0 0 6
    endloop
  endfacet
  facet normal 0 -1 -0
    outer loop
      vertex 10 0 6
      vertex 0 0 3
      vertex 10 0 3
    endloop
  endfacet
  facet normal 1 -0 0
    outer loop
      vertex 15 0 12
      vertex 15 6 9
      vertex 15 6 12
    endloop
  endfacet
  facet normal 1 0 0
    outer loop
      vertex 15 6 9
      vertex 15 0 12
      vertex 15 0 9
    endloop
  endfacet
  facet normal -0 0 1
    outer loop
      vertex 5 6 12
      vertex 15 0 12
      vertex 15 6 12
    endloop
  endfacet
  facet normal 0 0 1
    outer loop
      vertex 15 0 12
      vertex 5 6 12
      vertex 5 0 12
    endloop
  endfacet
  facet normal 0 0 -1
    outer loop
      vertex 5 0 9
      vertex 15 6 9
      vertex 15 0 9
    endloop
  endfacet
  facet normal -0 0 -1
    outer loop
      vertex 15 6 9
      vertex 5 0 9
      vertex 5 6 9
    endloop
  endfacet
  facet normal -1 0 0
    outer loop
      vertex 5 0 9
      vertex 5 6 12
      vertex 5 6 9
    endloop
  endfacet
  facet normal -1 -0 0
    outer loop
      vertex 5 6 12
      vertex 5 0 9
      vertex 5 0 12
    endloop
  endfacet
  facet normal 0 1 -0
    outer loop
      vertex 15 6 9
      vertex 5 6 12
      vertex 15 6 12
    endloop
  endfacet
  facet normal 0 1 0
    outer loop
      vertex 5 6 12
      vertex 15 6 9
      vertex 5 6 9
    endloop
  endfacet
  facet normal 0 -1 0
    outer loop
      vertex 5 0 9
      vertex 15 0 12
      vertex 5 0 12
    endloop
  endfacet
  facet normal 0 -1 -0
    outer loop
      vertex 15 0 12
      vertex 5 0 9
      vertex 15 0 9
    endloop
  endfacet
endsolid OpenSCAD_Model
